<svg width="32" height="32" viewBox="0 0 32 32" fill="none" xmlns="http://www.w3.org/2000/svg">
<rect width="32" height="32" rx="16" fill="#F5F5F5" fill-opacity="0.4"/>
<path d="M14.875 21.925V10.075C14.875 8.95 14.4 8.5 13.2 8.5H10.175C8.975 8.5 8.5 8.95 8.5 10.075V21.925C8.5 23.05 8.975 23.5 10.175 23.5H13.2C14.4 23.5 14.875 23.05 14.875 21.925Z" fill="#F0F0F0"/>
<path d="M23.5 21.925V10.075C23.5 8.95 23.025 8.5 21.825 8.5H18.8C17.6083 8.5 17.125 8.95 17.125 10.075V21.925C17.125 23.05 17.6 23.5 18.8 23.5H21.825C23.025 23.5 23.5 23.05 23.5 21.925Z" fill="#F0F0F0"/>
</svg>
