<svg width="32" height="33" viewBox="0 0 32 33" fill="none" xmlns="http://www.w3.org/2000/svg">
<rect y="0.5" width="32" height="32" rx="16" fill="#F5F5F5" fill-opacity="0.4"/>
<path d="M20.5749 14.5L10.6666 20.475C10.0833 20.825 9.33325 20.4083 9.33325 19.725V13.0583C9.33325 10.15 12.4749 8.33334 14.9999 9.78334L18.8249 11.9833L20.5666 12.9833C21.1416 13.325 21.1499 14.1583 20.5749 14.5Z" fill="#F0F0F0"/>
<path d="M21.0751 19.3834L17.7001 21.3334L14.3335 23.275C13.1251 23.9667 11.7585 23.825 10.7668 23.125C10.2835 22.7917 10.3418 22.05 10.8501 21.75L21.4418 15.4C21.9418 15.1 22.6001 15.3834 22.6918 15.9584C22.9001 17.25 22.3668 18.6417 21.0751 19.3834Z" fill="#F0F0F0"/>
</svg>
