<svg width="32" height="33" viewBox="0 0 32 33" fill="none" xmlns="http://www.w3.org/2000/svg">
<rect y="0.5" width="32" height="32" rx="16" fill="#F5F5F5" fill-opacity="0.4"/>
<path d="M22.9667 12.9833L9.78333 20.9C9.275 21.2083 8.59167 20.9 8.525 20.3083C8.50833 20.15 8.5 19.9917 8.5 19.8333V13.1667C8.5 10.6667 10.1667 9 12.6667 9H19.3333C21.8333 9 22.8583 10.2833 23.3417 12.0417C23.4417 12.4083 23.2833 12.7917 22.9667 12.9833Z" fill="#F0F0F0"/>
<path d="M23.5 15.7417V19.8333C23.5 22.3333 21.8334 24 19.3334 24H12.6667C11.9 24 11.175 23.7917 10.5584 23.425C10.025 23.1167 10.0584 22.3333 10.5834 22.0167L22.2334 15.025C22.7917 14.6917 23.5 15.0917 23.5 15.7417Z" fill="#F0F0F0"/>
</svg>
